<svg xmlns="http://www.w3.org/2000/svg" width="827" height="1169" viewBox="0 0 827 1169" font-family="Helvetica,Arial,sans-serif">
<rect width="827" height="1169" fill="#fff"/>
<defs><linearGradient id="g"><stop offset="0" stop-color="#2563eb"/><stop offset="1" stop-color="#7c3aed"/></linearGradient></defs>
<rect x="66.69" y="50.02" width="693.61" height="123.38" rx="9.34" fill="#1e3a8a"/>
<rect x="90.04" y="83.37" width="50.02" height="18.9" fill="#000000"/>
<rect x="90.04" y="102.26" width="50.02" height="18.9" fill="#dd0000"/>
<rect x="90.04" y="121.16" width="50.02" height="18.9" fill="#ffce00"/>
<rect x="90.04" y="83.37" width="50.02" height="56.69" fill="none" stroke="#fff"/>
<text x="163.4" y="108.34" font-size="32.01" font-weight="bold" fill="#ffffff" text-anchor="start">SPRACHAKADEMIE</text>
<text x="164.07" y="138.02" font-size="15.34" font-weight="normal" fill="#bfdbfe" text-anchor="start">DEUTSCH LERNEN · A1 → C2</text>
<text x="413.5" y="284.71" font-size="70.03" font-weight="bold" fill="#0f172a" text-anchor="middle">Apprends</text>
<text x="413.5" y="356.08" font-size="70.03" font-weight="bold" fill="#2563eb" text-anchor="middle">l'allemand</text>
<text x="413.5" y="395.13" font-size="21.34" font-weight="bold" fill="#475569" text-anchor="middle">Du débutant (A1) à l'expert (C2)</text>
<text x="413.5" y="430.61" font-size="14.67" font-weight="normal" fill="#64748b" text-anchor="middle">Cours · Vocabulaire · Grammaire · Dialogues audio</text>
<text x="413.5" y="449.29" font-size="14.67" font-weight="normal" fill="#64748b" text-anchor="middle">Tuteur IA · Coach de prononciation · Examens DELF &amp; telc</text>
<rect x="330.92" y="473.19" width="165.16" height="34.68" rx="17.34" fill="#fef3c7"/>
<text x="413.5" y="496.43" font-size="17.34" font-weight="bold" fill="#92400e" text-anchor="middle">SCANNE-MOI</text>
<rect x="203.42" y="525.88" width="420.17" height="420.17" rx="15.34" fill="#f1f5f9" stroke="#cbd5e1" stroke-width="2"/>
<rect x="210.26" y="532.72" width="406.49" height="406.49" rx="6" fill="#fff"/>
<g fill="#1e3a8a"><rect x="245.1" y="567.56" width="81.6" height="11.91"/><rect x="396.08" y="567.56" width="11.91" height="11.91"/><rect x="430.92" y="567.56" width="11.91" height="11.91"/><rect x="454.15" y="567.56" width="35.14" height="11.91"/><rect x="500.6" y="567.56" width="81.6" height="11.91"/><rect x="245.1" y="579.18" width="11.91" height="11.91"/><rect x="314.78" y="579.18" width="11.91" height="11.91"/><rect x="361.24" y="579.18" width="11.91" height="11.91"/><rect x="384.47" y="579.18" width="23.53" height="11.91"/><rect x="430.92" y="579.18" width="58.37" height="11.91"/><rect x="500.6" y="579.18" width="11.91" height="11.91"/><rect x="570.29" y="579.18" width="11.91" height="11.91"/><rect x="245.1" y="590.79" width="11.91" height="11.91"/><rect x="268.33" y="590.79" width="35.14" height="11.91"/><rect x="314.78" y="590.79" width="11.91" height="11.91"/><rect x="338.01" y="590.79" width="11.91" height="11.91"/><rect x="361.24" y="590.79" width="46.76" height="11.91"/><rect x="430.92" y="590.79" width="23.53" height="11.91"/><rect x="500.6" y="590.79" width="11.91" height="11.91"/><rect x="523.83" y="590.79" width="35.14" height="11.91"/><rect x="570.29" y="590.79" width="11.91" height="11.91"/><rect x="245.1" y="602.4" width="11.91" height="11.91"/><rect x="268.33" y="602.4" width="35.14" height="11.91"/><rect x="314.78" y="602.4" width="11.91" height="11.91"/><rect x="361.24" y="602.4" width="35.14" height="11.91"/><rect x="430.92" y="602.4" width="11.91" height="11.91"/><rect x="454.15" y="602.4" width="11.91" height="11.91"/><rect x="477.38" y="602.4" width="11.91" height="11.91"/><rect x="500.6" y="602.4" width="11.91" height="11.91"/><rect x="523.83" y="602.4" width="35.14" height="11.91"/><rect x="570.29" y="602.4" width="11.91" height="11.91"/><rect x="245.1" y="614.02" width="11.91" height="11.91"/><rect x="268.33" y="614.02" width="35.14" height="11.91"/><rect x="314.78" y="614.02" width="11.91" height="11.91"/><rect x="338.01" y="614.02" width="23.53" height="11.91"/><rect x="384.47" y="614.02" width="23.53" height="11.91"/><rect x="430.92" y="614.02" width="35.14" height="11.91"/><rect x="500.6" y="614.02" width="11.91" height="11.91"/><rect x="523.83" y="614.02" width="35.14" height="11.91"/><rect x="570.29" y="614.02" width="11.91" height="11.91"/><rect x="245.1" y="625.63" width="11.91" height="11.91"/><rect x="314.78" y="625.63" width="11.91" height="11.91"/><rect x="338.01" y="625.63" width="35.14" height="11.91"/><rect x="430.92" y="625.63" width="23.53" height="11.91"/><rect x="465.76" y="625.63" width="23.53" height="11.91"/><rect x="500.6" y="625.63" width="11.91" height="11.91"/><rect x="570.29" y="625.63" width="11.91" height="11.91"/><rect x="245.1" y="637.25" width="81.6" height="11.91"/><rect x="338.01" y="637.25" width="11.91" height="11.91"/><rect x="361.24" y="637.25" width="11.91" height="11.91"/><rect x="384.47" y="637.25" width="11.91" height="11.91"/><rect x="407.69" y="637.25" width="11.91" height="11.91"/><rect x="430.92" y="637.25" width="11.91" height="11.91"/><rect x="454.15" y="637.25" width="11.91" height="11.91"/><rect x="477.38" y="637.25" width="11.91" height="11.91"/><rect x="500.6" y="637.25" width="81.6" height="11.91"/><rect x="349.62" y="648.86" width="23.53" height="11.91"/><rect x="419.31" y="648.86" width="11.91" height="11.91"/><rect x="256.71" y="660.47" width="11.91" height="11.91"/><rect x="291.55" y="660.47" width="11.91" height="11.91"/><rect x="314.78" y="660.47" width="11.91" height="11.91"/><rect x="338.01" y="660.47" width="23.53" height="11.91"/><rect x="372.85" y="660.47" width="58.37" height="11.91"/><rect x="465.76" y="660.47" width="35.14" height="11.91"/><rect x="512.22" y="660.47" width="23.53" height="11.91"/><rect x="547.06" y="660.47" width="11.91" height="11.91"/><rect x="245.1" y="672.09" width="11.91" height="11.91"/><rect x="279.94" y="672.09" width="11.91" height="11.91"/><rect x="303.17" y="672.09" width="11.91" height="11.91"/><rect x="326.4" y="672.09" width="46.76" height="11.91"/><rect x="407.69" y="672.09" width="35.14" height="11.91"/><rect x="454.15" y="672.09" width="35.14" height="11.91"/><rect x="500.6" y="672.09" width="11.91" height="11.91"/><rect x="523.83" y="672.09" width="11.91" height="11.91"/><rect x="547.06" y="672.09" width="35.14" height="11.91"/><rect x="245.1" y="683.7" width="23.53" height="11.91"/><rect x="279.94" y="683.7" width="23.53" height="11.91"/><rect x="314.78" y="683.7" width="23.53" height="11.91"/><rect x="349.62" y="683.7" width="23.53" height="11.91"/><rect x="396.08" y="683.7" width="35.14" height="11.91"/><rect x="442.53" y="683.7" width="11.91" height="11.91"/><rect x="488.99" y="683.7" width="11.91" height="11.91"/><rect x="570.29" y="683.7" width="11.91" height="11.91"/><rect x="256.71" y="695.31" width="11.91" height="11.91"/><rect x="303.17" y="695.31" width="11.91" height="11.91"/><rect x="326.4" y="695.31" width="11.91" height="11.91"/><rect x="349.62" y="695.31" width="11.91" height="11.91"/><rect x="384.47" y="695.31" width="11.91" height="11.91"/><rect x="419.31" y="695.31" width="46.76" height="11.91"/><rect x="488.99" y="695.31" width="11.91" height="11.91"/><rect x="535.45" y="695.31" width="11.91" height="11.91"/><rect x="558.67" y="695.31" width="23.53" height="11.91"/><rect x="268.33" y="706.93" width="11.91" height="11.91"/><rect x="291.55" y="706.93" width="35.14" height="11.91"/><rect x="361.24" y="706.93" width="35.14" height="11.91"/><rect x="430.92" y="706.93" width="23.53" height="11.91"/><rect x="465.76" y="706.93" width="11.91" height="11.91"/><rect x="512.22" y="706.93" width="11.91" height="11.91"/><rect x="535.45" y="706.93" width="11.91" height="11.91"/><rect x="570.29" y="706.93" width="11.91" height="11.91"/><rect x="245.1" y="718.54" width="35.14" height="11.91"/><rect x="291.55" y="718.54" width="23.53" height="11.91"/><rect x="326.4" y="718.54" width="23.53" height="11.91"/><rect x="361.24" y="718.54" width="11.91" height="11.91"/><rect x="454.15" y="718.54" width="11.91" height="11.91"/><rect x="500.6" y="718.54" width="11.91" height="11.91"/><rect x="523.83" y="718.54" width="11.91" height="11.91"/><rect x="547.06" y="718.54" width="11.91" height="11.91"/><rect x="570.29" y="718.54" width="11.91" height="11.91"/><rect x="256.71" y="730.16" width="11.91" height="11.91"/><rect x="279.94" y="730.16" width="11.91" height="11.91"/><rect x="303.17" y="730.16" width="23.53" height="11.91"/><rect x="338.01" y="730.16" width="35.14" height="11.91"/><rect x="396.08" y="730.16" width="23.53" height="11.91"/><rect x="442.53" y="730.16" width="11.91" height="11.91"/><rect x="477.38" y="730.16" width="11.91" height="11.91"/><rect x="523.83" y="730.16" width="11.91" height="11.91"/><rect x="570.29" y="730.16" width="11.91" height="11.91"/><rect x="245.1" y="741.77" width="23.53" height="11.91"/><rect x="291.55" y="741.77" width="11.91" height="11.91"/><rect x="326.4" y="741.77" width="46.76" height="11.91"/><rect x="407.69" y="741.77" width="23.53" height="11.91"/><rect x="442.53" y="741.77" width="35.14" height="11.91"/><rect x="488.99" y="741.77" width="11.91" height="11.91"/><rect x="512.22" y="741.77" width="11.91" height="11.91"/><rect x="535.45" y="741.77" width="11.91" height="11.91"/><rect x="570.29" y="741.77" width="11.91" height="11.91"/><rect x="291.55" y="753.38" width="35.14" height="11.91"/><rect x="384.47" y="753.38" width="11.91" height="11.91"/><rect x="419.31" y="753.38" width="11.91" height="11.91"/><rect x="454.15" y="753.38" width="23.53" height="11.91"/><rect x="488.99" y="753.38" width="11.91" height="11.91"/><rect x="245.1" y="765.0" width="11.91" height="11.91"/><rect x="268.33" y="765.0" width="46.76" height="11.91"/><rect x="372.85" y="765.0" width="35.14" height="11.91"/><rect x="430.92" y="765.0" width="11.91" height="11.91"/><rect x="500.6" y="765.0" width="35.14" height="11.91"/><rect x="547.06" y="765.0" width="11.91" height="11.91"/><rect x="570.29" y="765.0" width="11.91" height="11.91"/><rect x="268.33" y="776.61" width="11.91" height="11.91"/><rect x="291.55" y="776.61" width="11.91" height="11.91"/><rect x="314.78" y="776.61" width="23.53" height="11.91"/><rect x="349.62" y="776.61" width="11.91" height="11.91"/><rect x="372.85" y="776.61" width="11.91" height="11.91"/><rect x="396.08" y="776.61" width="23.53" height="11.91"/><rect x="430.92" y="776.61" width="11.91" height="11.91"/><rect x="535.45" y="776.61" width="11.91" height="11.91"/><rect x="570.29" y="776.61" width="11.91" height="11.91"/><rect x="268.33" y="788.23" width="35.14" height="11.91"/><rect x="326.4" y="788.23" width="23.53" height="11.91"/><rect x="361.24" y="788.23" width="11.91" height="11.91"/><rect x="384.47" y="788.23" width="23.53" height="11.91"/><rect x="442.53" y="788.23" width="23.53" height="11.91"/><rect x="512.22" y="788.23" width="35.14" height="11.91"/><rect x="558.67" y="788.23" width="11.91" height="11.91"/><rect x="245.1" y="799.84" width="58.37" height="11.91"/><rect x="314.78" y="799.84" width="11.91" height="11.91"/><rect x="338.01" y="799.84" width="46.76" height="11.91"/><rect x="396.08" y="799.84" width="35.14" height="11.91"/><rect x="442.53" y="799.84" width="11.91" height="11.91"/><rect x="465.76" y="799.84" width="81.6" height="11.91"/><rect x="570.29" y="799.84" width="11.91" height="11.91"/><rect x="338.01" y="811.45" width="35.14" height="11.91"/><rect x="407.69" y="811.45" width="58.37" height="11.91"/><rect x="477.38" y="811.45" width="11.91" height="11.91"/><rect x="523.83" y="811.45" width="11.91" height="11.91"/><rect x="547.06" y="811.45" width="11.91" height="11.91"/><rect x="570.29" y="811.45" width="11.91" height="11.91"/><rect x="245.1" y="823.07" width="81.6" height="11.91"/><rect x="361.24" y="823.07" width="11.91" height="11.91"/><rect x="384.47" y="823.07" width="11.91" height="11.91"/><rect x="419.31" y="823.07" width="11.91" height="11.91"/><rect x="454.15" y="823.07" width="35.14" height="11.91"/><rect x="500.6" y="823.07" width="11.91" height="11.91"/><rect x="523.83" y="823.07" width="11.91" height="11.91"/><rect x="570.29" y="823.07" width="11.91" height="11.91"/><rect x="245.1" y="834.68" width="11.91" height="11.91"/><rect x="314.78" y="834.68" width="11.91" height="11.91"/><rect x="361.24" y="834.68" width="23.53" height="11.91"/><rect x="419.31" y="834.68" width="23.53" height="11.91"/><rect x="465.76" y="834.68" width="23.53" height="11.91"/><rect x="523.83" y="834.68" width="23.53" height="11.91"/><rect x="245.1" y="846.3" width="11.91" height="11.91"/><rect x="268.33" y="846.3" width="35.14" height="11.91"/><rect x="314.78" y="846.3" width="11.91" height="11.91"/><rect x="338.01" y="846.3" width="23.53" height="11.91"/><rect x="372.85" y="846.3" width="11.91" height="11.91"/><rect x="430.92" y="846.3" width="11.91" height="11.91"/><rect x="465.76" y="846.3" width="69.98" height="11.91"/><rect x="570.29" y="846.3" width="11.91" height="11.91"/><rect x="245.1" y="857.91" width="11.91" height="11.91"/><rect x="268.33" y="857.91" width="35.14" height="11.91"/><rect x="314.78" y="857.91" width="11.91" height="11.91"/><rect x="442.53" y="857.91" width="23.53" height="11.91"/><rect x="512.22" y="857.91" width="11.91" height="11.91"/><rect x="558.67" y="857.91" width="11.91" height="11.91"/><rect x="245.1" y="869.52" width="11.91" height="11.91"/><rect x="268.33" y="869.52" width="35.14" height="11.91"/><rect x="314.78" y="869.52" width="11.91" height="11.91"/><rect x="384.47" y="869.52" width="23.53" height="11.91"/><rect x="419.31" y="869.52" width="11.91" height="11.91"/><rect x="442.53" y="869.52" width="11.91" height="11.91"/><rect x="465.76" y="869.52" width="35.14" height="11.91"/><rect x="535.45" y="869.52" width="11.91" height="11.91"/><rect x="558.67" y="869.52" width="23.53" height="11.91"/><rect x="245.1" y="881.14" width="11.91" height="11.91"/><rect x="314.78" y="881.14" width="11.91" height="11.91"/><rect x="338.01" y="881.14" width="58.37" height="11.91"/><rect x="407.69" y="881.14" width="46.76" height="11.91"/><rect x="465.76" y="881.14" width="58.37" height="11.91"/><rect x="535.45" y="881.14" width="11.91" height="11.91"/><rect x="558.67" y="881.14" width="23.53" height="11.91"/><rect x="245.1" y="892.75" width="81.6" height="11.91"/><rect x="361.24" y="892.75" width="23.53" height="11.91"/><rect x="396.08" y="892.75" width="23.53" height="11.91"/><rect x="442.53" y="892.75" width="11.91" height="11.91"/><rect x="477.38" y="892.75" width="23.53" height="11.91"/><rect x="523.83" y="892.75" width="23.53" height="11.91"/><rect x="558.67" y="892.75" width="11.91" height="11.91"/></g>
<rect x="159.28" y="972.06" width="508.43" height="56.69" rx="28.34" fill="url(#g)"/>
<text x="413.5" y="1008.57" font-size="24.01" font-weight="bold" fill="#fff" text-anchor="middle">Scanne &amp; commence maintenant</text>
<text x="413.5" y="1073.35" font-size="30.68" font-weight="bold" fill="#1e3a8a" text-anchor="middle">sprachakademie.app</text>
<text x="413.5" y="1101.55" font-size="14.67" font-weight="normal" fill="#64748b" text-anchor="middle">Apprends à ton rythme, où que tu sois.</text>
</svg>